<svg viewBox="0 0 30 30" fill="none" xmlns="http://www.w3.org/2000/svg">
<path d="M6.64888 18.1305L5.60458 22.029L1.7877 22.1098C0.647016 19.994 0 17.5734 0 15.001C0 12.5136 0.604944 10.1679 1.67725 8.10242H1.67807L5.07616 8.72541L6.56473 12.1031C6.25318 13.0114 6.08337 13.9864 6.08337 15.001C6.08348 16.1022 6.28294 17.1572 6.64888 18.1305Z" fill="#FBBB00"/>
<path d="M29.7379 12.1985C29.9102 13.1059 30 14.043 30 15.0008C30 16.0747 29.8871 17.1223 29.672 18.1328C28.9418 21.5714 27.0337 24.5739 24.3905 26.6987L24.3897 26.6979L20.1096 26.4795L19.5038 22.698C21.2577 21.6695 22.6284 20.0598 23.3504 18.1328H15.3292V12.1985H23.4674H29.7379Z" fill="#518EF8"/>
<path d="M24.3921 26.6975L24.3929 26.6983C21.8222 28.7646 18.5567 30.0009 15.0019 30.0009C9.28933 30.0009 4.32269 26.8079 1.78906 22.1091L6.65023 18.1299C7.91702 21.5107 11.1784 23.9175 15.0019 23.9175C16.6453 23.9175 18.185 23.4732 19.5062 22.6976L24.3921 26.6975Z" fill="#28B446"/>
<path d="M24.5741 3.45341L19.7146 7.43183C18.3473 6.57715 16.7309 6.08342 14.9993 6.08342C11.0893 6.08342 7.76689 8.60053 6.56357 12.1026L1.67685 8.10194H1.67603C4.17256 3.28858 9.20185 0 14.9993 0C18.639 0 21.9762 1.29649 24.5741 3.45341Z" fill="#F14336"/>
</svg>
