<svg viewBox="0 0 30 30" fill="none" xmlns="http://www.w3.org/2000/svg">
<g clip-path="url(#clip0_73_119)">
<path fill-rule="evenodd" clip-rule="evenodd" d="M23.5 30H6.5C2.91025 30 0 27.0898 0 23.5V6.5C0 2.91025 2.91025 0 6.5 0H23.5C27.0898 0 30 2.91025 30 6.5V23.5C30 27.0898 27.0898 30 23.5 30Z" fill="#00B900"/>
<path fill-rule="evenodd" clip-rule="evenodd" d="M25.874 13.6808C25.874 8.79327 20.9743 4.81674 14.9513 4.81674C8.92903 4.81674 4.02878 8.79327 4.02878 13.6808C4.02878 18.0625 7.91453 21.7323 13.1635 22.426C13.5193 22.5028 14.0035 22.6603 14.1258 22.9645C14.236 23.2408 14.1978 23.6733 14.161 23.952C14.161 23.952 14.033 24.7228 14.0053 24.8873C13.9575 25.1633 13.7858 25.9673 14.9513 25.476C16.1173 24.9848 21.2418 21.7723 23.5335 19.1345H23.533C25.1158 17.3985 25.874 15.637 25.874 13.6808Z" fill="white"/>
<path fill-rule="evenodd" clip-rule="evenodd" d="M12.732 11.319H11.9657C11.8485 11.319 11.753 11.4142 11.753 11.5315V16.2907C11.753 16.408 11.8485 16.503 11.9657 16.503H12.732C12.8495 16.503 12.9447 16.408 12.9447 16.2907V11.5315C12.9447 11.4142 12.8495 11.319 12.732 11.319ZM17.2395 11.319H18.0055C18.123 11.319 18.2182 11.4142 18.2182 11.5315V16.2907C18.2182 16.408 18.123 16.503 18.0055 16.503H17.2395C17.2202 16.503 17.202 16.5005 17.185 16.4957C17.184 16.4957 17.1827 16.4952 17.1817 16.4952L17.1817 16.4952L17.1817 16.4952C17.177 16.4937 17.1722 16.4922 17.1672 16.4905L17.1648 16.4894L17.161 16.488L17.1505 16.4837C17.147 16.4822 17.1437 16.4805 17.1405 16.4787L17.139 16.4779L17.1372 16.4769L17.1345 16.4752C17.13 16.473 17.1255 16.4702 17.1212 16.4675L17.1199 16.4664L17.119 16.4657C17.0987 16.452 17.0802 16.4345 17.065 16.4132L14.8812 13.4642V16.2907C14.8812 16.408 14.786 16.503 14.6685 16.503H13.9022C13.785 16.503 13.6895 16.408 13.6895 16.2907V11.5315C13.6895 11.4142 13.785 11.319 13.9022 11.319H14.6685L14.676 11.3192L14.687 11.32L14.6907 11.3204L14.6907 11.3204C14.6932 11.3207 14.6957 11.321 14.6982 11.3215C14.701 11.3217 14.704 11.3222 14.707 11.3227C14.7112 11.3235 14.7152 11.3242 14.7192 11.3252L14.7267 11.3272C14.731 11.3285 14.7352 11.3297 14.7392 11.3315C14.7417 11.3322 14.7437 11.333 14.7462 11.334C14.7495 11.3349 14.7527 11.3364 14.7558 11.3378L14.7585 11.339L14.7652 11.3422C14.769 11.3442 14.7727 11.3465 14.7765 11.3487L14.7784 11.3497C14.78 11.3506 14.7816 11.3514 14.783 11.3525L14.794 11.36L14.7947 11.3605C14.7964 11.3618 14.7979 11.3629 14.7995 11.3645C14.8021 11.3663 14.8046 11.3684 14.8071 11.3705L14.8071 11.3705L14.811 11.3737L14.8147 11.3775C14.819 11.3815 14.8235 11.386 14.8277 11.3905C14.828 11.391 14.8285 11.3915 14.829 11.392L14.829 11.392C14.8347 11.3987 14.8405 11.406 14.8455 11.4135L17.0267 14.359V11.5315C17.0267 11.4142 17.1217 11.319 17.2395 11.319ZM22.4489 12.298C22.4489 12.4155 22.3539 12.5107 22.2364 12.5107H20.1549V13.315H22.2364C22.3539 13.315 22.4489 13.4105 22.4489 13.528V14.294C22.4489 14.4117 22.3539 14.5067 22.2364 14.5067H20.1549V15.3112H22.2364C22.3539 15.3112 22.4489 15.4067 22.4489 15.5242V16.2902C22.4489 16.4077 22.3539 16.5032 22.2364 16.5032H19.1754C19.1182 16.5032 19.0667 16.4802 19.0287 16.4435C19.0274 16.443 19.0262 16.4417 19.0254 16.441C19.0244 16.44 19.0232 16.4387 19.0227 16.4375C18.9857 16.3995 18.9629 16.3477 18.9629 16.2907V16.2902V11.5317V11.5315C18.9629 11.4745 18.9857 11.423 19.0222 11.385C19.0229 11.3837 19.0242 11.3825 19.0254 11.3812L19.0264 11.3804L19.0264 11.3804C19.0269 11.38 19.0275 11.3796 19.0279 11.379C19.0662 11.342 19.1179 11.319 19.1754 11.319H19.1759H22.2364C22.3539 11.319 22.4489 11.4142 22.4489 11.5317V12.298ZM8.80341 15.3113H10.8852C11.0027 15.3113 11.0977 15.4068 11.0977 15.5243V16.2903C11.0977 16.4078 11.0027 16.5033 10.8852 16.5033H7.82416C7.76716 16.5033 7.71566 16.4805 7.67716 16.4438C7.67654 16.4427 7.67558 16.442 7.6747 16.4414C7.67452 16.4413 7.67434 16.4411 7.67416 16.441C7.67324 16.4401 7.67259 16.4392 7.67201 16.4383C7.6718 16.438 7.67161 16.4378 7.67141 16.4375C7.63466 16.3995 7.61166 16.3478 7.61166 16.2908V16.2903V11.5315C7.61166 11.414 7.70716 11.319 7.82441 11.319H8.59066C8.70816 11.319 8.80341 11.414 8.80341 11.5315V15.3113Z" fill="#00B900"/>
</g>
<defs>
<clipPath id="clip0_73_119">
<rect width="30" height="30" fill="white"/>
</clipPath>
</defs>
</svg>
