<svg viewBox="0 0 681 487" fill="none" xmlns="http://www.w3.org/2000/svg">
<circle cx="351.267" cy="45" r="45" fill=""/>
<circle cx="595.267" cy="50" r="45" fill=""/>
<path d="M244.382 196.381C273.63 146.131 305.053 102.828 334.544 102.088C364.034 101.347 375.196 127.575 371.079 182.696C366.961 237.817 375.41 255.61 387.557 261.307C399.704 267.004 423.418 235.399 448.195 206.268C472.971 177.137 509.815 110.691 557.137 103.001C604.459 95.3105 617.61 140.995 606.645 202.289C595.68 263.584 538.322 369.557 562.91 332.928C587.499 296.3 639.415 284.786 661.076 298.453C684.707 313.365 688.312 367.291 633.386 430.69C578.46 494.089 528.436 473.838 518.299 448.584C508.162 423.331 520.843 368.82 525.186 344.379C530.006 317.249 520.032 298.494 474.524 318.642C429.015 338.791 406.504 398.375 365.97 437.405C325.437 476.434 281.738 469.029 270.001 439.814C258.264 410.6 288.783 331.309 267.089 323.851C245.395 316.393 223.017 341.463 203.689 368.456C184.36 395.45 173.046 462.755 90.5468 463.826C8.04773 464.897 -0.0817765 400.081 11.2493 373.288C22.5803 346.495 66.8404 336.381 95.9442 340.152C125.048 343.922 135.997 361.653 164.536 342.931C187.367 327.953 215.134 246.631 244.382 196.381Z" fill=""/>
</svg>
